<?xml version="1.0" encoding="utf-8"?>
<!-- Generator: Adobe Illustrator 21.0.0, SVG Export Plug-In . SVG Version: 6.00 Build 0)  -->
<svg version="1.1" id="Isolation_Mode" xmlns="http://www.w3.org/2000/svg" xmlns:xlink="http://www.w3.org/1999/xlink" x="0px"
	 y="0px" viewBox="0 0 326.1 70.1" style="enable-background:new 0 0 326.1 70.1;" xml:space="preserve">
<style type="text/css">
	.st0{fill-rule:evenodd;clip-rule:evenodd;fill:#000;}
	.st1{fill:#000;}
</style>
<path class="st0" d="M29.4,50.1c-1.4,0.4-2.6-0.2-3.9-1.8c-1.4,0.1-2.3,1-2.7,2.8C16,60.1,30.2,59.8,29.4,50.1L29.4,50.1z M3.6,41.1
	c0.3,0.1,0.5,0.4,0.5,1.1c-6.1,2.6,0.8,8.9,6.9,4.2c6.2-7.8,12.1-13.8,18.9-11.6c6.3,0.6,6,5,4.6,21.4c1.1,1.3,3.1-0.9,5.6-4.1
	c-0.2,1.9-0.2,4.6-0.2,4.5c-4.9,4.4-7.8,6.1-10.2,1.5C9.2,67.8,12,46.6,27,47.7c1.7,2,0.3-0.8,2.5-0.7c1.7-7.1-4.8-7.8-6.2-5.4
	C16.1,58.4-9.3,49.3,3.6,41.1L3.6,41.1z"/>
<path class="st1" d="M41.3,36.2c3.7,0.1,7.4-0.5,11-2l-0.8,4.5c13.9-9.1,19.6-3.9,17.1,15.8c-1.5-0.7-3.2-0.9-4.9-0.4
	c-0.6-3.5,1.4-2.8,1.3-5.8c-0.9-5,1.3-4.3,0.2-8.4c0.2-1.4-2.3-1.8-7.4-1.1c-6.7,0.6-8.3,6.6-8.3,10.9c1.1,0.9,0,3.4,1.5,5.8
	c1.2,1.7,2.8,2.4,5,2l0.2,2.5l-13.4,0.3l0-3c3.3,1.5,4.7-1.5,4-9c0.4-7.9-1.4-10.8-5.7-8.8L41.3,36.2L41.3,36.2z"/>
<path class="st1" d="M59.5,57.3c2.1,0.6,3.4-0.1,3.8-2.3c2-0.5,3.9-0.3,5.8,0.6c0.7,4.3,5-0.9,6.1,1.5c0.8,2.2-0.3,3.9-3.3,5.2
	c-1.2,1.6-2.8,1.8-5.1,0.8c-5.2,1-7.9,0.1-8-2.8C59.4,59.4,59.6,58.5,59.5,57.3L59.5,57.3z"/>
<path class="st1" d="M74.5,36.7C84,36,88.6,32,88.4,24.7c1.9,6.5,1.1,11.1-2.3,13.9c0.8,5.9,0,9-2.3,9.3c-0.3,2.7,0.5,4.8,2.5,6.5
	c-1.9-0.8-3.2-1.1-3.9-0.8c-0.1-4.7-0.6-7.3-1.5-8c0.2-4-0.5-6-2.2-5.9c-1.5,0.7-3,0.6-4.2-0.4L74.5,36.7L74.5,36.7z"/>
<path class="st1" d="M80.3,25.1c-0.1-2.1,1.1-3.9,2.9-4c1.7-0.1,3.3,1.5,3.4,3.6c0.1,2.1-1.1,3.9-2.9,4C82,28.8,80.4,27.2,80.3,25.1
	L80.3,25.1z"/>
<path class="st1" d="M82.2,54.4l4.3,0.8c0.3,1.8,1.5,2.5,3.7,2.1l0.1,3c-4.6-0.7-8.1-0.8-10.7-0.2C80.9,58.5,81.8,56.6,82.2,54.4
	L82.2,54.4z"/>
<path class="st1" d="M92.6,36.1c4,0,7.6-0.6,10.8-2l-0.8,4.5c7.8-5.4,12.7-5.3,14.9,0.4c8.5-6.2,13.5-6,15.2,0.7
	c1.4,9.2-3.4,18.1,3.8,17.2l-0.2,3.2c-4.1-0.6-8.3-0.7-12.7-0.3l0.1-2.6c2.7,0.4,4-2.2,3.8-7.8c-0.4-11.3-1.5-12.9-9.8-7.3
	c0.6,1.4-4.1,3.6-2.1,7c-0.3,1.5,0,2.4,0.9,2.8c-0.1,0.8,0.2,1.5,1.1,2.2c0.1,2.4,1.3,3.4,3.5,3.2l0.2,2.9
	c-3.4-0.7-7.6-0.8-12.7-0.2c0.2-3.3,0.2-5.9,0-7.9c1.2-0.4,1.2-3.5,0.3-9.4c-0.6-0.2-1.1-1.2-1.5-3l-4.8,2.6l0.2,10.7
	c0.1,3.5,1.2,4.8,3.4,4.1l0.1,3.1c-3.7-0.6-8.1-0.7-13-0.2l0.2-3.1c3.2,1.3,4.5-0.7,4-5.9c2.8-2.8,2.8-5,0.1-6.6
	c0-5.2-0.8-5.8-5.1-5.4L92.6,36.1L92.6,36.1z"/>
<path class="st1" d="M141.2,45.2c-2.8-5.6,0.9-9.2,11-11c5.6-0.7,8.3,3.6,7,9.7c-1.6,13.5-0.1,16.4,4.6,8.7l0.4,4
	c-4.9,5.2-8.3,5.5-10.1,1l-2.5,1.7l-0.1-1.4c0.9-0.1,0.9-0.6,0.1-1.4c1.6-1.6,2.3-3.8,2.2-6.7c-2.7,0.9-2-0.7-4.7-0.7
	c-3.4,2.6-5.9,3.1-4.9,8.2c1.4,1.3,2.9,1.5,4.5,0.3c0.2,0.9,0.7,1.7,1.7,2.4c-6.6,1.7-10.2,0.2-10.7-4.6c-0.2-3.4,2.5-5.9,8.2-7.7
	l5.9-1l0.2-2.5c3.5-1.3,2.2-6.8-1.4-5.6c-1.4-0.8-5.5-1.9-6.2,1.6C144.9,42.6,143.2,44.3,141.2,45.2L141.2,45.2z"/>
<path class="st0" d="M175.5,40.3c0.2,10.6-1.7,14.4,1.8,14.5c0.6,2.3,1.9,2.4,4.3,2.2l0.1,2.9c-4.3-0.6-9.2-0.6-14.6,0.1l0.4-3.2
	c4,1.3,5.4-2.9,4.3-12.5l0.1-17.4c0.5-5.1-1.3-7.1-5.5-6c-6.7-0.9-9.6,1.3-10.9-0.7c-3.7,0.6-5.8,0.3-6.4-0.8
	c-1.1,0.4-2.3,0.2-3.7-0.6c-0.9,0.4-1.7-1.9-4.6-2.3c-0.8-0.6-1.2-1.5-1.2-2.5c-0.6,0.1-1.4-0.6-2.3-2c-1-0.8-1.7-2.2-2.1-4.1
	c-0.7-2-0.9-3.8-0.6-5.2l1.8-2.7c-0.8,1.2-1,3.5-0.3,6.9c0.7,0.4,1.2,1.5,1.5,3.3c0.6-0.1,1.6,0.7,2.9,2.4c0.6-0.2,1.2,0.5,1.9,1.9
	c2.6,1.3,5.2,1.8,7.7,1.4c0.6,1,2.9,1.2,6.9,0.7c0,1.1,2.7,1.4,8.1,0.8c1.1-1.3,4.5-0.9,5.8-0.1c2,0.2,4.3-0.2,6.9-1.1
	c-0.1,5.1-0.7,9.3-1.9,12.6c-0.3,5.3,0.1,8,1.2,7.9C176.9,38.6,176.3,39.9,175.5,40.3L175.5,40.3z"/>
<path class="st1" d="M183.1,20.3c0.1-2.6,3.7-2.4,2.5,0.5c0,0.3,0,0.9-0.1,1.6l-1,0.1C184.5,21.4,184,20.7,183.1,20.3L183.1,20.3z"
	/>
<path class="st1" d="M182.6,23.6c2.3-0.8,2.9,0.2,1.8,3c-0.3,4.1-1,4.9-2.1,2.5c-0.4-0.9-0.4-1.6,0-2.1c0.5-0.5,0.4-1.1-0.2-1.8
	C182.1,24.3,182.2,23.8,182.6,23.6L182.6,23.6z"/>
<path class="st0" d="M211.2,42.8l-4.8,13.5l9.6-0.1L211.2,42.8L211.2,42.8z M199.1,67.5l-0.2-11.9c5.4,1.6,7.1-6.4,11.7-21.6
	l2.8-0.4c3.9,9.9,5.1,14.2,3.6,13c-0.6,5.5,0.9,7.9,4.6,7.2c1.1,2.3,2.6,2.9,4.7,1.7l-4,11.9l-1.3-0.2l1.9-4.1
	c0.5-3.9-0.3-5.7-2.5-5.4c-0.8-0.8-3.2-1-7.2-0.7l-2.7,0.9c-5.7,0.5-8.6,3.6-8.5,9.3L199.1,67.5L199.1,67.5z"/>
<path class="st1" d="M228.2,35c4.3,0.7,8,0.7,11.1-0.1l0.1,2.8l-1.6,0.3c1,1.9,3.8,4.9,8.3,9.1c-7.6,8.1-9.9,17.1-19.1,12l0.3-3.6
	c2,3.3,4.1,3.3,6.3,0c2.1-1.1,2.8-2.8,2.7-3.3c-0.4-2,2.9-5.5,4.5-5.8c-4.9-5-8.1-8.4-12.5-8.4L228.2,35L228.2,35z"/>
<path class="st1" d="M242.6,34.9c4.3,0.5,8.4,0.5,12.2-0.1l0.1,3.2c-2.6-1.1-3.9,0.2-3.7,3.7l0.1,11.3c-0.1,3.5,1.2,4.9,3.8,4.1
	l-0.1,2.9c-3.8-0.5-7.8-0.5-11.8,0.2l-0.4-3.5c2.5,1.1,3.8,0.1,3.8-3.1l-0.1-9.1c0.9-0.6,1.2-1.7,0.9-3.2c-0.1-1.4-0.5-2.2-1.2-2.2
	c-0.3-1.4-1.5-1.8-3.6-1.4L242.6,34.9L242.6,34.9z"/>
<path class="st1" d="M251.7,47l8.4-8.7l-0.6-0.9l1.8-2.3l1.4,0.1c0.6-1.8,1.8-3.5,3.7-5c-0.8,1.9-0.2,2.6,2,2.1l1.4-1.8
	c0-2.4,1.1-4,3.5-4.8c-0.5,1-0.6,1.8-0.1,2.5c1.3,0.1,2.7-0.9,4-3.1c1.6-0.7,2.8-1,3.5-0.7c0.4-0.6,1.8-0.4,4.2,0.5
	c0.8-0.5,1.7-0.2,2.8,1c1.5-0.1,2.6,0.8,3.1,2.4l0.5,1.9l-2-1.5c-0.4-0.8-1.3-1.1-2.7-0.8c-0.5-0.7-2.1-0.6-4.6,0.4
	c-0.4,1.2-1.4,1.8-3.1,1.9c-7.3,3.2-14.7,8.5-22.2,15.8l1.1,0.9c-0.5,1,0,1.5,1.4,1.4l2,1.4c-1.5,1.9-1.4,2.8,0.3,2.8
	c0.2,0.5,0.7,0.7,1.5,0.6c-0.3-0.6-0.6-1-0.9-1.2l0.3-0.8c3.9,4.5,4.7,8.2,8.3,3.9l0,3.7C260.1,65,260.6,53.2,251.7,47L251.7,47z"/>
<path class="st0" d="M287.1,49.2c0,0-10.8-0.2-8.4,5.8C281,59.2,287,55.5,287.1,49.2L287.1,49.2z M274.5,44.7
	c-3.8-10.1,13.9-14.2,18-7.3c0.8,1.8-0.7,8.6-0.5,17.1c-0.3,2.6,1.5,1.7,5.4-2.5l0.3,4.1c-5.6,5-9.1,5.3-10.3,1
	c-17.6,10.7-21.4-9.7-0.3-11.1l0-4.2c-0.2-5.1-6-6.2-7.6-2.4l1,1.9L274.5,44.7L274.5,44.7z"/>
<path class="st1" d="M300.6,43.6l0-1.2c-2.3-0.2-2.1-6.9,0.8-7.3l0.3-0.9c3.1,1.1,9.9,1.2,20.3,0.2l0.3,1.5
	c-2.1,2.1-6.4,8.4-13.1,18.8c1.8-1.4,6,5.4,10.5-1.6c-1.6-4.1,4-4.9,5.3-1.1c1.6,2,1.5,3.7-0.2,5.3c-0.5,2.7-2.5,3.5-5.9,2.4
	c-8.7-0.5-14.4-0.3-17.2,0.5l-1-1.9c1.2,0.2,1.9-0.5,1.9-2c0.9-0.3,1.7-1.2,2.2-3c2.1-0.8,4-2.9,5.8-6.3c0.9-0.3,1.7-1.2,2.2-2.5
	c1.2-0.2,2.7-1.8,4.4-4.9c0-2.7-0.8-3.7-2.4-3c-0.5-0.5-1-0.5-1.6,0.1c-6-0.5-8.8,0.3-8.4,2.6c-1.1,1.2-1.4,2.6-0.9,4L300.6,43.6
	L300.6,43.6z"/>
<path class="st1" d="M319.9,27.2c1.2,0.5,1.7,1.1,1.4,2c1.8,0,3,0.2,3.4,0.6c0.9-0.8,0.6-1.5-0.8-2.3
	C321.7,25.1,320.3,25,319.9,27.2L319.9,27.2z"/>
<path class="st1" d="M288.6,65.2c1.4,0.8,3,1.1,4.8,0.9c0-1.7,1-2.4,2.9-1.9c0.7,2.7,1.5,4.3,2.5,4.9c0,0.5-0.5,0.7-1.5,0.4
	C292.8,67.8,289.9,66.4,288.6,65.2L288.6,65.2z"/>
<path class="st0" d="M296.8,64.2c1.4,1.3,2.4,3.1,2.9,5.2C298.2,67.9,297.3,66.1,296.8,64.2L296.8,64.2z"/>
<path class="st1" d="M297.8,64l7.8,0.1c1.6-0.2,2.3,0.5,2.3,2c0.3,1.5-0.4,2.5-1.9,3l-5.3,0.3L297.8,64L297.8,64z"/>
<path class="st0" d="M283.1,65.3c2.5-0.5,4.1,0.1,4.7,1.8C286.6,66.4,285,65.8,283.1,65.3L283.1,65.3z"/>
<path class="st0" d="M280,65.9c2.1,2.3,4.3,2.9,6.6,1.6C284.4,66.9,282.5,65.2,280,65.9L280,65.9z"/>
<path class="st1" d="M253.3,65.5l0.3,1.8c0.9-1,1.9-1.6,3-2L253.3,65.5L253.3,65.5z"/>
<path class="st1" d="M256.1,66.7c0.9-1.2,3.2-1.6,7-1.4c-0.2,1.2-0.6,1.7-1.2,1.5C259.8,66.2,258.1,66.9,256.1,66.7L256.1,66.7z"/>
<path class="st0" d="M263.1,66.7c0.1-1.3,2.5-1.6,7.1-0.8C270.2,66.5,267.9,66.8,263.1,66.7L263.1,66.7z"/>
<path class="st0" d="M270.4,66.9c0.6,0.3,1.4,0.3,2.3-0.2C271.5,66.1,270.7,66.2,270.4,66.9L270.4,66.9z"/>
<path class="st1" d="M273,66.1c0.6,1.4,2.6,1.6,6.1,0.7c0.4,0.5,0.8,0.9,1.2,1.1c-0.3-1-0.8-1.6-1.5-1.9
	C278.2,66.3,276.3,66.4,273,66.1L273,66.1z"/>
<path class="st0" d="M49.4,68.2l2.9-0.5c0.3,0.4,0.1,0.9,0,1.4c0,0-0.6,0.1,0,0c-2.1-0.3-3.2,0-3.9,1.1l-5.8-0.3
	C47.2,69.3,49.5,68.8,49.4,68.2L49.4,68.2z"/>
<path class="st0" d="M54,67.3C54,67.3,54.2,67.3,54,67.3c0.8,0,1.3,0.1,1.8,0.1c0,0,0.2,0.1,0,0c0.2,0.1,0,0,0,0
	c0.2-0.1,0.4-0.1,0.4,0c0,0-0.1,0.1-0.4,0c0.3,0.1,0.4,0,0.4,0c0,0-0.1-0.1-0.4,0c0.3-0.2,0.5-0.2,0.5-0.1c0,0.1-0.2,0.2-0.5,0.1
	c0.4,1,0,1.1,0,1.1s-0.8,0.1,0,0C54.5,68.2,54.3,67.8,54,67.3L54,67.3z"/>
<path class="st0" d="M58.2,66.8c2.2,0.2,3.6,0,4.1-0.7c1.1-0.1,2.2-0.1,3.1-0.2c0.5,0.6,0.9,1.1,1.3,1.7c0,0-0.3,0,0,0
	c-2.9-0.5-4.6-0.3-5.4,0.7c0,0-0.1-0.1-0.1-0.1c0,0,0,0,0.1,0.1c-0.1-0.1-0.1-0.1-0.1-0.1c0,0,0.1,0,0.1,0.1c-1.2-0.3-1.6-0.4-2-0.5
	C58.7,67.6,58.6,67.1,58.2,66.8L58.2,66.8z"/>
<path class="st0" d="M66.7,65.8C66.7,65.8,67.4,65.8,66.7,65.8c1.6,0.9,2.3,1.4,3.3,2l-1.9-0.1C67.7,67,67.2,66.4,66.7,65.8
	L66.7,65.8z"/>
<path class="st0" d="M68.9,65.7c2.1-0.1,3.3-0.3,3.5-0.8c0.7,0.2,1.5,0.4,2.3,0.6c0.5,0.8,0.9,1.5,1.3,2.4c0,0-0.5-0.1,0,0
	c-2.1-0.4-3.3-0.4-4.3-0.2C70.6,66.9,69.7,66.4,68.9,65.7L68.9,65.7z"/>
<path class="st1" d="M76,65.6c1.8,0.2,3.7,0,5.6-0.4c-0.1,1.6-1.4,2.7-4.4,2.7C76.8,66.9,76.4,66.3,76,65.6L76,65.6z"/>
<path class="st1" d="M82.7,66.3c0-0.4,0.3-0.7,0.6-0.7c0.4,0,0.7,0.3,0.7,0.6c0,0.4-0.3,0.7-0.6,0.7C83,66.9,82.7,66.7,82.7,66.3
	L82.7,66.3z"/>
<path class="st1" d="M81.5,66.9c0-0.2,0.2-0.4,0.4-0.5c0.2,0,0.4,0.2,0.5,0.4s-0.2,0.4-0.4,0.5C81.7,67.4,81.5,67.2,81.5,66.9
	L81.5,66.9z"/>
<path class="st0" d="M110.9,68l-0.6,0l-7.4,0.4c-0.4-0.5-0.8-1-1.2-1.5l-1.3,0c0.4,0.5,0.8,1,1.2,1.5l-1.7,0.1
	c-0.3-0.5-1.1-0.7-2.3-0.7c0-0.3-0.1-0.5-0.1-0.8c1.4-0.1,2.7-0.1,4.3-0.2c0.8,0,1.6,0,2.5,0c1.2,0,1.9,0.4,3.2,0.3
	c0.4,0,0.7-0.1,1-0.2c0.1,0.1,0.2,0.2,0.3,0.2C109.7,67.4,110.3,67.7,110.9,68L110.9,68L110.9,68z M96.8,64.7c0.7-0.1,1.3-0.1,2-0.1
	l0.1,0c0.5,0.1,0.9,0.2,1.4,0.3c4.2,0.7,6.9,0.5,8.3-0.5c4-0.2,4.3,0.8,5.5,1.2c-0.7,0.5-1.5,0.9-2.1,1.3c-0.7-0.1-1.2-0.3-1.8-0.5
	c0.3-0.1,0.7-0.2,1.1-0.2c0.7,0,0.6-1.1-0.1-1.1c-1.5,0.1-2.3,0.7-3.9,0.9c-1.2,0.1-1.8-0.2-3-0.3c-1.2,0-2.3,0-3.4,0.1
	c-0.2-0.3-0.5-0.6-0.7-1c-0.4-0.1-0.9-0.2-1.4-0.3l-0.1,0c0.3,0.5,0.6,0.9,0.9,1.3L97.3,66C97.2,65.6,97,65.2,96.8,64.7L96.8,64.7z
	 M94.3,64.4c0.5,0.1,1,0.2,1.3,0.4c0.2,0.4,0.4,0.9,0.5,1.3l-1,0C94.9,65.5,94.6,65,94.3,64.4L94.3,64.4z M90.7,67.6l-1.9,0.3
	l-2.7-1.4l2-0.1c-0.7-0.3-0.3-1.3,0.4-1l0.1,0c-0.1-0.5,0.4-0.9,1.4-1.2c1.2-0.1,2.3-0.1,3.1,0c0.3,0.7,0.6,1.3,0.9,1.8
	c-1.1,0-2.3-0.1-3.6-0.2c-0.2,0-0.3,0-0.4,0.1c-0.4-0.2-0.9-0.4-1.4-0.6l-0.1,0c-0.7-0.3-1.1,0.7-0.4,1
	C89.1,66.8,90.9,66.4,90.7,67.6L90.7,67.6z M119.1,66.1c0.9,0.3,1.6-0.1,2.3-0.8l12.9,0.3l-16,1.8l-1,0.1l0.3-0.1
	C118.2,67,118.6,66.6,119.1,66.1L119.1,66.1z M94.6,67.8l-2.2-0.2c-0.2-0.2-0.4-0.3-0.6-0.5c0.9,0.1,1.8,0.1,2.6,0.1
	C94.5,67.4,94.5,67.6,94.6,67.8L94.6,67.8z M96.5,67.9l-0.8-0.1c0-0.2-0.1-0.5-0.2-0.7l0.9,0C96.5,67.4,96.5,67.7,96.5,67.9
	L96.5,67.9z M118,65.3l0.4,0c-0.3,0.3-0.6,0.5-1,0.8c-0.1-0.1-0.3-0.1-0.5,0c-1.4,0.6-2.5,0.8-3.5,1.7l-1.1,0.1
	c0.8-0.8,2.1-1.3,3.2-2.1C116.2,65.7,117,65.6,118,65.3L118,65.3z"/>
</svg>
